<?xml version="1.0" encoding="utf-8"?>
<!-- Generator: Adobe Illustrator 15.1.0, SVG Export Plug-In . SVG Version: 6.00 Build 0)  -->
<!DOCTYPE svg PUBLIC "-//W3C//DTD SVG 1.1//EN" "http://www.w3.org/Graphics/SVG/1.1/DTD/svg11.dtd">
<svg version="1.1" id="Layer_1" xmlns="http://www.w3.org/2000/svg" xmlns:xlink="http://www.w3.org/1999/xlink" x="0px" y="0px"
	 width="1200px" height="700px" viewBox="0 0 1200 700" enable-background="new 0 0 1200 700" xml:space="preserve">
<rect x="50.476" y="16.905" fill="#FFD700" stroke="#000000" stroke-miterlimit="10" width="915.476" height="511.775"/>
<polygon fill="#662D91" stroke="#000000" stroke-miterlimit="10" points="84.333,140.376 116.278,56.476 83.789,18.927 
	51.705,60.771 "/>
<polygon stroke="#000000" stroke-miterlimit="10" points="84.333,140.376 116.278,224.277 83.789,261.825 51.705,219.981 "/>
<polygon fill="#662D91" stroke="#000000" stroke-miterlimit="10" points="149.687,145.278 181.632,229.179 149.143,266.728 
	117.059,224.883 "/>
<polygon stroke="#000000" stroke-miterlimit="10" points="215.041,145.278 246.986,229.179 214.497,266.728 182.413,224.883 "/>
<polygon fill="#662D91" stroke="#000000" stroke-miterlimit="10" points="280.395,145.278 312.34,229.179 279.851,266.728 
	247.767,224.883 "/>
<polygon stroke="#000000" stroke-miterlimit="10" points="345.749,145.278 377.694,229.179 345.204,266.728 313.121,224.883 "/>
<polygon fill="#662D91" stroke="#000000" stroke-miterlimit="10" points="411.104,145.278 443.048,229.179 410.558,266.728 
	378.475,224.883 "/>
<polygon stroke="#000000" stroke-miterlimit="10" points="476.458,145.278 508.402,229.179 475.913,266.728 443.829,224.883 "/>
<polygon stroke="#000000" stroke-miterlimit="10" points="151.321,146.367 181.087,52.663 148.598,15.114 116.514,56.959 "/>
<polygon fill="#662D91" stroke="#000000" stroke-miterlimit="10" points="215.586,146.367 245.352,52.663 212.863,15.114 
	180.779,56.959 "/>
<polygon stroke="#000000" stroke-miterlimit="10" points="279.851,146.367 309.617,52.663 277.127,15.114 245.044,56.959 "/>
<polygon fill="#662D91" stroke="#000000" stroke-miterlimit="10" points="344.116,146.367 373.882,52.663 341.393,15.114 
	309.309,56.959 "/>
<polygon stroke="#000000" stroke-miterlimit="10" points="408.381,146.367 438.147,52.663 405.657,15.114 373.574,56.959 "/>
<polygon fill="#662D91" stroke="#000000" stroke-miterlimit="10" points="472.646,146.367 502.412,52.663 469.922,15.114 
	437.839,56.959 "/>
<polygon fill="#662D91" stroke="#000000" stroke-miterlimit="10" points="929.346,146.328 897.4,62.428 929.891,24.879 
	961.974,66.724 "/>
<polygon stroke="#000000" stroke-miterlimit="10" points="929.346,146.328 897.4,230.229 929.891,267.777 961.974,225.934 "/>
<polygon fill="#662D91" stroke="#000000" stroke-miterlimit="10" points="863.992,151.23 832.047,235.131 864.536,272.68 
	896.619,230.835 "/>
<polygon stroke="#000000" stroke-miterlimit="10" points="798.638,151.23 766.693,235.131 799.182,272.68 831.266,230.835 "/>
<polygon fill="#662D91" stroke="#000000" stroke-miterlimit="10" points="733.283,151.23 701.339,235.131 733.828,272.68 
	765.912,230.835 "/>
<polygon stroke="#000000" stroke-miterlimit="10" points="667.93,151.23 635.984,235.131 668.475,272.68 700.559,230.835 "/>
<polygon fill="#662D91" stroke="#000000" stroke-miterlimit="10" points="602.575,151.23 570.63,235.131 603.121,272.68 
	635.203,230.835 "/>
<polygon stroke="#000000" stroke-miterlimit="10" points="537.221,151.23 505.276,235.131 537.766,272.68 569.85,230.835 "/>
<polygon stroke="#000000" stroke-miterlimit="10" points="862.357,152.319 832.592,58.615 865.081,21.066 897.164,62.911 "/>
<polygon fill="#662D91" stroke="#000000" stroke-miterlimit="10" points="798.093,152.319 768.326,58.615 800.816,21.066 
	832.899,62.911 "/>
<polygon stroke="#000000" stroke-miterlimit="10" points="733.828,152.319 704.063,58.615 736.551,21.066 768.635,62.911 "/>
<polygon fill="#662D91" stroke="#000000" stroke-miterlimit="10" points="669.563,152.319 639.797,58.615 672.286,21.066 
	704.369,62.911 "/>
<polygon stroke="#000000" stroke-miterlimit="10" points="605.298,152.319 575.532,58.615 608.021,21.066 640.104,62.911 "/>
<polygon fill="#662D91" stroke="#000000" stroke-miterlimit="10" points="541.033,152.319 511.267,58.615 543.756,21.066 
	575.84,62.911 "/>
<polygon fill="#662D91" stroke="#000000" stroke-miterlimit="10" points="932.917,398.71 900.972,314.81 933.461,277.261 
	965.545,319.105 "/>
<polygon stroke="#000000" stroke-miterlimit="10" points="932.917,398.71 900.972,482.611 933.461,520.159 965.545,478.315 "/>
<polygon fill="#662D91" stroke="#000000" stroke-miterlimit="10" points="867.563,403.611 835.618,487.513 868.107,525.062 
	900.19,483.217 "/>
<polygon stroke="#000000" stroke-miterlimit="10" points="802.209,403.611 770.264,487.513 802.753,525.062 834.837,483.217 "/>
<polygon fill="#662D91" stroke="#000000" stroke-miterlimit="10" points="736.854,403.611 704.91,487.513 737.399,525.062 
	769.482,483.217 "/>
<polygon stroke="#000000" stroke-miterlimit="10" points="671.501,403.611 639.556,487.513 672.046,525.062 704.129,483.217 "/>
<polygon fill="#662D91" stroke="#000000" stroke-miterlimit="10" points="606.146,403.611 574.202,487.513 606.691,525.062 
	638.774,483.217 "/>
<polygon stroke="#000000" stroke-miterlimit="10" points="540.792,403.611 508.848,487.513 541.337,525.062 573.421,483.217 "/>
<polygon stroke="#000000" stroke-miterlimit="10" points="865.929,404.701 836.163,310.997 868.652,273.448 900.735,315.293 "/>
<polygon fill="#662D91" stroke="#000000" stroke-miterlimit="10" points="801.664,404.701 771.897,310.997 804.387,273.448 
	836.471,315.293 "/>
<polygon stroke="#000000" stroke-miterlimit="10" points="737.398,404.701 707.633,310.997 740.122,273.448 772.206,315.293 "/>
<polygon fill="#662D91" stroke="#000000" stroke-miterlimit="10" points="673.134,404.701 643.368,310.997 675.857,273.448 
	707.94,315.293 "/>
<polygon stroke="#000000" stroke-miterlimit="10" points="608.869,404.701 579.103,310.997 611.593,273.448 643.676,315.293 "/>
<polygon fill="#662D91" stroke="#000000" stroke-miterlimit="10" points="544.604,404.701 514.838,310.997 547.328,273.448 
	579.411,315.293 "/>
<polygon fill="#662D91" stroke="#000000" stroke-miterlimit="10" points="87.904,404.662 119.85,320.762 87.359,283.213 
	55.276,325.058 "/>
<polygon stroke="#000000" stroke-miterlimit="10" points="87.904,404.662 119.85,488.563 87.359,526.111 55.276,484.268 "/>
<polygon fill="#662D91" stroke="#000000" stroke-miterlimit="10" points="153.258,409.564 185.203,493.465 152.714,531.014 
	120.631,489.169 "/>
<polygon stroke="#000000" stroke-miterlimit="10" points="218.612,409.564 250.557,493.465 218.068,531.014 185.984,489.169 "/>
<polygon fill="#662D91" stroke="#000000" stroke-miterlimit="10" points="283.967,409.564 315.911,493.465 283.422,531.014 
	251.338,489.169 "/>
<polygon stroke="#000000" stroke-miterlimit="10" points="349.32,409.564 381.266,493.465 348.775,531.014 316.691,489.169 "/>
<polygon fill="#662D91" stroke="#000000" stroke-miterlimit="10" points="414.675,409.564 446.62,493.465 414.129,531.014 
	382.047,489.169 "/>
<polygon stroke="#000000" stroke-miterlimit="10" points="480.029,409.564 511.974,493.465 479.484,531.014 447.4,489.169 "/>
<polygon stroke="#000000" stroke-miterlimit="10" points="154.893,410.652 184.658,316.949 152.169,279.4 120.086,321.245 "/>
<polygon fill="#662D91" stroke="#000000" stroke-miterlimit="10" points="219.157,410.652 248.924,316.949 216.434,279.4 
	184.351,321.245 "/>
<polygon stroke="#000000" stroke-miterlimit="10" points="283.422,410.652 313.188,316.949 280.699,279.4 248.615,321.245 "/>
<polygon fill="#662D91" stroke="#000000" stroke-miterlimit="10" points="347.688,410.652 377.453,316.949 344.964,279.4 
	312.881,321.245 "/>
<polygon stroke="#000000" stroke-miterlimit="10" points="411.952,410.652 441.718,316.949 409.229,279.4 377.146,321.245 "/>
<polygon fill="#662D91" stroke="#000000" stroke-miterlimit="10" points="476.217,410.652 505.983,316.949 473.494,279.4 
	441.41,321.245 "/>
</svg>
